<?xml version="1.0" encoding="utf-8"?>
<!-- Generator: Adobe Illustrator 26.4.1, SVG Export Plug-In . SVG Version: 6.00 Build 0)  -->
<svg version="1.1" id="Ñëîé_1" xmlns="http://www.w3.org/2000/svg" xmlns:xlink="http://www.w3.org/1999/xlink" x="0px" y="0px"
	 viewBox="0 0 1115.84 1000" style="enable-background:new 0 0 1115.84 1000;" xml:space="preserve">
<style type="text/css">
	.st0{fill:#FFFFFF;}
	.st1{fill:url(#SVGID_1_);}
	.st2{fill:#B8E3FF;}
	.st3{fill:url(#SVGID_00000048479267620947945720000003441238210237605286_);}
</style>
<g>
	<g>
		<rect class="st0" width="1115.84" height="1000"/>
		<g>
			<g>
				<linearGradient id="SVGID_1_" gradientUnits="userSpaceOnUse" x1="850.7152" y1="809.494" x2="526.638" y2="415.7552">
					<stop  offset="0.0745" style="stop-color:#69C4FF"/>
					<stop  offset="0.2995" style="stop-color:#6FC6FF"/>
					<stop  offset="0.6053" style="stop-color:#80CDFF"/>
					<stop  offset="0.956" style="stop-color:#9DD8FF"/>
					<stop  offset="1" style="stop-color:#A1DAFF"/>
				</linearGradient>
				<path class="st1" d="M1115.84,0H738.3c0,0,184.11,242.33-213.48,413.36c-215,92.49-572.36,210.45-448.7,586.64h1039.73V0z"/>
				<g>
					<polygon class="st2" points="517.03,1000 553.93,1000 1115.84,689.92 1115.84,669.56 					"/>
					
						<linearGradient id="SVGID_00000070799038807787685820000009169110868491325068_" gradientUnits="userSpaceOnUse" x1="1014.3514" y1="1068.9224" x2="893.3513" y2="917.9224">
						<stop  offset="0.0745" style="stop-color:#69C4FF"/>
						<stop  offset="0.2995" style="stop-color:#6FC6FF"/>
						<stop  offset="0.6053" style="stop-color:#80CDFF"/>
						<stop  offset="0.956" style="stop-color:#9DD8FF"/>
						<stop  offset="1" style="stop-color:#A1DAFF"/>
					</linearGradient>
					<polygon style="fill:url(#SVGID_00000070799038807787685820000009169110868491325068_);" points="1115.84,1000 553.93,1000 
						1115.84,689.92 					"/>
				</g>
			</g>
			<g>
				<defs>
					<path id="SVGID_00000039838648243390431240000008120330429953236656_" d="M1115.84,0H738.3c0,0,184.11,242.33-213.48,413.36
						c-215,92.49-572.36,210.45-448.7,586.64h1039.73V0z"/>
				</defs>
				<clipPath id="SVGID_00000010277603947267251930000014788614217053000869_">
					<use xlink:href="#SVGID_00000039838648243390431240000008120330429953236656_"  style="overflow:visible;"/>
				</clipPath>
			</g>
		</g>
	</g>
</g>
</svg>
