<?xml version="1.0" encoding="utf-8"?>
<!-- Generator: Adobe Illustrator 26.4.1, SVG Export Plug-In . SVG Version: 6.00 Build 0)  -->
<svg version="1.1" id="Layer_1" xmlns="http://www.w3.org/2000/svg" xmlns:xlink="http://www.w3.org/1999/xlink" x="0px" y="0px"
	 viewBox="0 0 658.09 477.36" style="enable-background:new 0 0 658.09 477.36;" xml:space="preserve">

<style>
@keyframes body-move {
	0%, 100% { transform: translateY(0px)}
	50% { transform: translateY(2px)}
}

@keyframes tire-move {
	0%, 100% { transform: translateY(0px)}
	50% { transform: translateY(2px)}
}

@keyframes tire-move2 {
	0%, 100% { transform: translateY(0px)}
	50% { transform: translateY(1px)}
}

@keyframes swoosh-move {
	0% { transform: translateX(0) rotate(45deg)}
	100% { transform: translateX(100px) rotate(45deg)}
}

#body {
	animation: body-move 1s ease infinite;
	<!-- animation: swoosh-move 1s ease infinite; -->
}

#tire_front, #tire_back {
	animation: tire-move .4s ease infinite;

}

#tire_rim_front, #tire_rim_back {
	animation: tire-move2 .3s ease infinite;
}

#shadow {
	filter: blur(10px);
}

</style>
<style type="text/css">
	.st0{fill:#4CA1D9;}
	.st1{fill:url(#SVGID_1_);}
	.st2{enable-background:new    ;}
	.st3{fill:url(#SVGID_00000085957297018645483970000010971942299618597003_);}
	.st4{fill:url(#SVGID_00000029029387291655355680000003319115751443192978_);}
	.st5{fill:url(#SVGID_00000116919441103951700530000013308215592083005629_);}
	.st6{fill:url(#SVGID_00000030451193637219772820000000890327668426212501_);}
	.st7{fill:url(#SVGID_00000161604735118342685030000015538116380888841362_);}
	.st8{fill:url(#SVGID_00000147940733708404556910000002257609029281406856_);}
	.st9{fill:url(#SVGID_00000085937268892358721770000010118907358614722221_);}
	.st10{fill:url(#SVGID_00000126313614051563158070000002834354304784299671_);}
	.st11{fill:url(#SVGID_00000098925852417187696190000004577639512013248144_);}
	.st12{fill:url(#SVGID_00000156573609278112169810000008951218286492059839_);}
	.st13{fill:url(#SVGID_00000023268855185641763000000003446998884743242379_);}
	.st14{fill:url(#SVGID_00000037667655611505943940000008291621125931253927_);}
	.st15{fill:url(#SVGID_00000178885690489764238720000007732914922624432052_);}
	.st16{fill:url(#SVGID_00000095325264129030568890000003478842392355307409_);}
	.st17{fill:url(#SVGID_00000110446401548170300560000017665342021669549994_);}
	.st18{fill:url(#SVGID_00000168094673927884979540000004917777258073048221_);}
	.st19{fill:#FFFFFF;}
	.st20{fill:url(#SVGID_00000092451553363445391120000011157277205044696503_);}
	.st21{fill:url(#SVGID_00000159446208783274888900000009013303714524055222_);}
	.st22{fill:#34AAF7;}
	.st23{fill:url(#SVGID_00000036949778902346484290000011669736614535433900_);}
	.st24{fill:url(#SVGID_00000024708993195275412480000010581122806650358427_);}
	.st25{fill:url(#SVGID_00000165944599447187255920000002382268470675742130_);}
	.st26{fill:url(#SVGID_00000104704512479361221220000014397679694075118263_);}
	.st27{fill:url(#SVGID_00000181067474383307355340000014777935955542965926_);}
	.st28{fill:url(#SVGID_00000163033286042982301300000012323779549302469559_);}
	.st29{fill:url(#SVGID_00000171694417725636705680000016292767388417721008_);}
	.st30{fill:url(#SVGID_00000162320357230515461660000003823977388752833203_);}
	.st31{fill:url(#SVGID_00000070840738119787720400000010556620667600723636_);}
	.st32{fill:url(#SVGID_00000081616393172882616630000002439896116428283029_);}
	.st33{fill:url(#SVGID_00000111909071398140862030000017062614891650231476_);}
	.st34{fill:url(#SVGID_00000153668292071179663990000008749029296345429169_);}
</style>
<g id="Layer_7">
</g>
<g id="shadow">
	<path class="st0" d="M617.49,211.43c14.98,8.65,15.07,22.73,0.18,31.38L246.54,458.48c-14.89,8.65-39.19,8.65-54.18,0L40.6,370.86
		c-14.98-8.65-15.06-22.73-0.17-31.38L411.56,123.8c14.89-8.65,39.18-8.65,54.16,0L617.49,211.43z"/>
</g>
<g id="tire_back">
	<g>
		
			<linearGradient id="SVGID_1_" gradientUnits="userSpaceOnUse" x1="528.5352" y1="286.4859" x2="527.8685" y2="196.8188" gradientTransform="matrix(1 0 0 -1 0 480)">
			<stop  offset="0" style="stop-color:#044887"/>
			<stop  offset="0.2181" style="stop-color:#095092"/>
			<stop  offset="0.5969" style="stop-color:#1565AE"/>
			<stop  offset="1" style="stop-color:#2580D3"/>
		</linearGradient>
		<path class="st1" d="M528.09,189.57c-22.28,12.86-40.28,44.04-40.2,69.63c0.02,5.69,0.03,10.69,0.03,10.96l79.54-46.03
			c0.72-3.9,1.1-7.76,1.09-11.5C568.48,187.04,550.36,176.71,528.09,189.57z"/>
		<g>
			<g>
				<g class="st2">
					
						<linearGradient id="SVGID_00000104691607195130445540000013554121269860775553_" gradientUnits="userSpaceOnUse" x1="503.2531" y1="259.644" x2="547.753" y2="222.1441" gradientTransform="matrix(1 0 0 -1 0 480)">
						<stop  offset="0" style="stop-color:#044887"/>
						<stop  offset="0.2181" style="stop-color:#095092"/>
						<stop  offset="0.5969" style="stop-color:#1565AE"/>
						<stop  offset="1" style="stop-color:#2580D3"/>
					</linearGradient>
					<path style="fill:url(#SVGID_00000104691607195130445540000013554121269860775553_);" d="M532.24,178.57
						c-6.91-4.02-16.48-3.45-27.04,2.65c-20.99,12.12-37.95,41.49-37.88,65.62c0.03,11.98,4.26,20.41,11.09,24.38l22.73,13.21
						c-6.82-3.96-11.05-12.4-11.09-24.38c-0.07-24.12,16.89-53.5,37.88-65.62c10.56-6.1,20.13-6.67,27.04-2.65L532.24,178.57z"/>
					<g>
						
							<linearGradient id="SVGID_00000085215704652781837180000002460427483177969083_" gradientUnits="userSpaceOnUse" x1="504.8059" y1="261.4869" x2="549.306" y2="223.9869" gradientTransform="matrix(1 0 0 -1 0 480)">
							<stop  offset="0" style="stop-color:#044887"/>
							<stop  offset="0.2181" style="stop-color:#095092"/>
							<stop  offset="0.5969" style="stop-color:#1565AE"/>
							<stop  offset="1" style="stop-color:#2580D3"/>
						</linearGradient>
						<path style="fill:url(#SVGID_00000085215704652781837180000002460427483177969083_);" d="M527.93,194.43
							c20.99-12.12,38.06-2.39,38.13,21.73s-16.89,53.5-37.88,65.62c-20.99,12.12-38.06,2.39-38.13-21.73
							C489.98,235.93,506.94,206.55,527.93,194.43z"/>
					</g>
				</g>
			</g>
		</g>
	</g>
</g>
<g id="tire_rim_back2">
	
		<linearGradient id="SVGID_00000167376526473285909620000014832803783310483902_" gradientUnits="userSpaceOnUse" x1="494.9798" y1="237.5219" x2="560.8902" y2="237.5219" gradientTransform="matrix(-1 0 0 -1 1055.87 475.0438)">
		<stop  offset="0" style="stop-color:#1C88EB"/>
		<stop  offset="0.2319" style="stop-color:#3D9BEF"/>
		<stop  offset="0.74" style="stop-color:#92CCF9"/>
		<stop  offset="1" style="stop-color:#BFE6FF"/>
	</linearGradient>
	<path style="fill:url(#SVGID_00000167376526473285909620000014832803783310483902_);" d="M528.05,275.38
		c18.2-10.51,32.9-35.98,32.84-56.89s-14.86-29.34-33.06-18.84c-18.2,10.51-32.91,35.98-32.85,56.89
		C495.05,277.46,509.85,285.89,528.05,275.38z M512.83,268.85c-0.84,1.17-1.82,2.06-2.78,2.62c-1.52,0.88-3.02,0.92-3.97-0.07
		c-1.55-1.62-1.03-5.4,1.15-8.43c1.4-1.94,10.49-11.76,15.02-16.04c0.45,0.69,1.04,1.22,1.73,1.54
		C521.15,254.41,514.25,266.88,512.83,268.85z M528.36,267.65c-0.57,2.83-2.53,5.61-4.67,6.84c-0.41,0.24-0.83,0.42-1.24,0.53
		c-2.59,0.71-4.14-1.45-3.46-4.82c0.44-2.2,5-15.44,7.5-21.38c0.81-0.09,1.67-0.35,2.58-0.81
		C529.35,253.15,528.8,265.44,528.36,267.65z M556.23,237.23c-0.81,2.5-2.56,4.71-4.39,5.77c-0.68,0.39-1.37,0.63-2.03,0.66
		c-1.6,0.07-10-2.21-13.38-3.87c0.51-1.12,0.91-2.26,1.18-3.4c4.61-2.03,14.65-5.11,16.24-5.18
		C556.28,231.09,557.35,233.79,556.23,237.23z M551.89,212.99c0.42-0.38,0.85-0.69,1.27-0.93c2.13-1.23,4.09-0.73,4.69,1.41
		c0.71,2.56-0.81,6.5-3.39,8.79c-1.45,1.29-9.18,6.35-14.28,9.3c-0.81,0.47-1.55,0.88-2.2,1.22c-0.05-1.08-0.26-2.01-0.61-2.79
		C541.37,224.74,550.24,214.46,551.89,212.99z M539.6,206.68c0.94-2.1,2.44-3.8,3.98-4.69c0.95-0.55,1.92-0.78,2.76-0.6
		c2.2,0.49,2.75,3.64,1.23,7.05c-0.97,2.16-8.02,13.98-11.8,19.57c-0.67-0.45-1.47-0.69-2.37-0.7
		C534.87,221.15,538.64,208.83,539.6,206.68z M534.33,243.35c3.16,2,9.47,8.03,10.22,9.43c1.15,2.12,0.12,6.04-2.3,8.75
		c-0.66,0.74-1.36,1.32-2.05,1.71c-1.82,1.05-3.57,0.87-4.4-0.67c-0.76-1.4-3.25-11.71-3.81-16.61
		C532.84,245.21,533.63,244.32,534.33,243.35z M527.09,206.65c0.15-0.1,0.3-0.19,0.44-0.28c2.48-1.43,4.6-0.47,4.83,2.28
		c0.16,1.83-0.87,13.27-1.84,19.33c-0.31,0.14-0.62,0.3-0.94,0.48c-0.74,0.42-1.45,0.95-2.13,1.55c-1.85-4.17-4.58-12.97-4.73-14.78
		C522.47,212.31,524.43,208.46,527.09,206.65z M509.11,226.77c0.94-1.64,2.19-2.91,3.43-3.63c1.24-0.71,2.47-0.89,3.42-0.35
		c1.19,0.66,6.43,6.66,8.77,10.27c-0.84,1.18-1.57,2.46-2.13,3.78c-4.33-0.14-12.26-1.55-13.45-2.22
		C507.25,233.56,507.23,230.04,509.11,226.77z M505.62,244.46c0.14-0.08,0.28-0.15,0.42-0.22c1.68-0.8,10.89-3.01,15.4-3.53
		c-0.13,0.76-0.2,1.5-0.2,2.23c0,0.44,0.03,0.86,0.08,1.26c-4.43,3.68-13.28,10.01-15.7,11.41c-0.15,0.09-0.27,0.15-0.37,0.2
		c-2.67,1.28-4.65-0.27-4.44-3.46C501.02,249.31,503.13,245.89,505.62,244.46z"/>
</g>
<g id="tire_rim_back">
	
		<linearGradient id="SVGID_00000076570245227672475220000008910852991097790098_" gradientUnits="userSpaceOnUse" x1="494.9798" y1="237.5219" x2="560.8902" y2="237.5219" gradientTransform="matrix(-1 0 0 -1 1055.87 475.0438)">
		<stop  offset="0" style="stop-color:#1C88EB"/>
		<stop  offset="0.2319" style="stop-color:#3D9BEF"/>
		<stop  offset="0.74" style="stop-color:#92CCF9"/>
		<stop  offset="1" style="stop-color:#BFE6FF"/>
	</linearGradient>
	<path style="fill:url(#SVGID_00000076570245227672475220000008910852991097790098_);" d="M528.05,275.38
		c18.2-10.51,32.9-35.98,32.84-56.89s-14.86-29.34-33.06-18.84c-18.2,10.51-32.91,35.98-32.85,56.89
		C495.05,277.46,509.85,285.89,528.05,275.38z M512.83,268.85c-0.84,1.17-1.82,2.06-2.78,2.62c-1.52,0.88-3.02,0.92-3.97-0.07
		c-1.55-1.62-1.03-5.4,1.15-8.43c1.4-1.94,10.49-11.76,15.02-16.04c0.45,0.69,1.04,1.22,1.73,1.54
		C521.15,254.41,514.25,266.88,512.83,268.85z M528.36,267.65c-0.57,2.83-2.53,5.61-4.67,6.84c-0.41,0.24-0.83,0.42-1.24,0.53
		c-2.59,0.71-4.14-1.45-3.46-4.82c0.44-2.2,5-15.44,7.5-21.38c0.81-0.09,1.67-0.35,2.58-0.81
		C529.35,253.15,528.8,265.44,528.36,267.65z M556.23,237.23c-0.81,2.5-2.56,4.71-4.39,5.77c-0.68,0.39-1.37,0.63-2.03,0.66
		c-1.6,0.07-10-2.21-13.38-3.87c0.51-1.12,0.91-2.26,1.18-3.4c4.61-2.03,14.65-5.11,16.24-5.18
		C556.28,231.09,557.35,233.79,556.23,237.23z M551.89,212.99c0.42-0.38,0.85-0.69,1.27-0.93c2.13-1.23,4.09-0.73,4.69,1.41
		c0.71,2.56-0.81,6.5-3.39,8.79c-1.45,1.29-9.18,6.35-14.28,9.3c-0.81,0.47-1.55,0.88-2.2,1.22c-0.05-1.08-0.26-2.01-0.61-2.79
		C541.37,224.74,550.24,214.46,551.89,212.99z M539.6,206.68c0.94-2.1,2.44-3.8,3.98-4.69c0.95-0.55,1.92-0.78,2.76-0.6
		c2.2,0.49,2.75,3.64,1.23,7.05c-0.97,2.16-8.02,13.98-11.8,19.57c-0.67-0.45-1.47-0.69-2.37-0.7
		C534.87,221.15,538.64,208.83,539.6,206.68z M534.33,243.35c3.16,2,9.47,8.03,10.22,9.43c1.15,2.12,0.12,6.04-2.3,8.75
		c-0.66,0.74-1.36,1.32-2.05,1.71c-1.82,1.05-3.57,0.87-4.4-0.67c-0.76-1.4-3.25-11.71-3.81-16.61
		C532.84,245.21,533.63,244.32,534.33,243.35z M527.09,206.65c0.15-0.1,0.3-0.19,0.44-0.28c2.48-1.43,4.6-0.47,4.83,2.28
		c0.16,1.83-0.87,13.27-1.84,19.33c-0.31,0.14-0.62,0.3-0.94,0.48c-0.74,0.42-1.45,0.95-2.13,1.55c-1.85-4.17-4.58-12.97-4.73-14.78
		C522.47,212.31,524.43,208.46,527.09,206.65z M509.11,226.77c0.94-1.64,2.19-2.91,3.43-3.63c1.24-0.71,2.47-0.89,3.42-0.35
		c1.19,0.66,6.43,6.66,8.77,10.27c-0.84,1.18-1.57,2.46-2.13,3.78c-4.33-0.14-12.26-1.55-13.45-2.22
		C507.25,233.56,507.23,230.04,509.11,226.77z M505.62,244.46c0.14-0.08,0.28-0.15,0.42-0.22c1.68-0.8,10.89-3.01,15.4-3.53
		c-0.13,0.76-0.2,1.5-0.2,2.23c0,0.44,0.03,0.86,0.08,1.26c-4.43,3.68-13.28,10.01-15.7,11.41c-0.15,0.09-0.27,0.15-0.37,0.2
		c-2.67,1.28-4.65-0.27-4.44-3.46C501.02,249.31,503.13,245.89,505.62,244.46z"/>
</g>
<g id="tire_front">
	<g>
		
			<linearGradient id="SVGID_00000168819521663367544880000015899124479749091739_" gradientUnits="userSpaceOnUse" x1="215.863" y1="100.7409" x2="275.8628" y2="68.741" gradientTransform="matrix(1 0 0 -1 0 480)">
			<stop  offset="0" style="stop-color:#044887"/>
			<stop  offset="0.2181" style="stop-color:#095092"/>
			<stop  offset="0.5969" style="stop-color:#1565AE"/>
			<stop  offset="1" style="stop-color:#2580D3"/>
		</linearGradient>
		<path style="fill:url(#SVGID_00000168819521663367544880000015899124479749091739_);" d="M285,376.34
			c-0.07-25.6-18.19-35.92-40.47-23.06s-40.28,44.04-40.2,69.64c0.01,3.74,0.42,7.15,1.16,10.21l84.16-48.6l0,0
			C288.92,384.24,285.01,382.41,285,376.34z"/>
		<g>
			<g>
				<g class="st2">
					
						<linearGradient id="SVGID_00000076594276314132457080000012698035032478671520_" gradientUnits="userSpaceOnUse" x1="214.3849" y1="97.9697" x2="274.3851" y2="65.9695" gradientTransform="matrix(1 0 0 -1 0 480)">
						<stop  offset="0" style="stop-color:#044887"/>
						<stop  offset="0.2181" style="stop-color:#095092"/>
						<stop  offset="0.5969" style="stop-color:#1565AE"/>
						<stop  offset="1" style="stop-color:#2580D3"/>
					</linearGradient>
					<path style="fill:url(#SVGID_00000076594276314132457080000012698035032478671520_);" d="M251.54,340.63
						c-6.91-4.02-16.48-3.45-27.04,2.65c-20.99,12.12-37.95,41.49-37.88,65.62c0.03,11.98,4.26,20.41,11.09,24.38l22.73,13.21
						c-6.82-3.96-11.05-12.4-11.09-24.38c-0.07-24.12,16.89-53.5,37.88-65.62c10.56-6.1,20.13-6.67,27.04-2.65L251.54,340.63z"/>
					<g>
						
							<linearGradient id="SVGID_00000079445794008247658050000006558389036917374364_" gradientUnits="userSpaceOnUse" x1="214.15" y1="97.529" x2="274.1501" y2="65.5289" gradientTransform="matrix(1 0 0 -1 0 480)">
							<stop  offset="0" style="stop-color:#044887"/>
							<stop  offset="0.2181" style="stop-color:#095092"/>
							<stop  offset="0.5969" style="stop-color:#1565AE"/>
							<stop  offset="1" style="stop-color:#2580D3"/>
						</linearGradient>
						<path style="fill:url(#SVGID_00000079445794008247658050000006558389036917374364_);" d="M247.22,356.5
							c20.99-12.12,38.06-2.39,38.13,21.73c0.07,24.12-16.89,53.5-37.88,65.62s-38.06,2.39-38.13-21.73
							C209.27,397.99,226.24,368.61,247.22,356.5z"/>
					</g>
				</g>
			</g>
		</g>
	</g>
</g>
<g id="tire_rim_front2_00000075160236501961276800000003566756318299573654_">
	
		<linearGradient id="SVGID_00000167388285951216384380000016606324735520592063_" gradientUnits="userSpaceOnUse" x1="212.681" y1="419.8379" x2="281.6555" y2="379.4045" gradientTransform="matrix(-1 0 0 -1 494.47 799.1656)">
		<stop  offset="0" style="stop-color:#1C88EB"/>
		<stop  offset="0.2319" style="stop-color:#3D9BEF"/>
		<stop  offset="0.74" style="stop-color:#92CCF9"/>
		<stop  offset="1" style="stop-color:#BFE6FF"/>
	</linearGradient>
	<path style="fill:url(#SVGID_00000167388285951216384380000016606324735520592063_);" d="M247.35,437.45
		c18.2-10.51,32.9-35.98,32.84-56.89c-0.06-20.91-14.86-29.34-33.06-18.84c-18.2,10.51-32.91,35.98-32.85,56.89
		C214.35,439.52,229.15,447.96,247.35,437.45z M232.14,430.92c-0.84,1.17-1.82,2.06-2.78,2.62c-1.52,0.88-3.02,0.92-3.97-0.07
		c-1.55-1.62-1.03-5.4,1.15-8.43c1.4-1.94,10.49-11.76,15.02-16.04c0.45,0.69,1.04,1.22,1.73,1.54
		C240.46,416.48,233.55,428.95,232.14,430.92z M247.66,429.72c-0.57,2.83-2.53,5.61-4.67,6.84c-0.41,0.24-0.83,0.42-1.24,0.53
		c-2.59,0.71-4.14-1.45-3.46-4.82c0.44-2.2,5-15.44,7.5-21.38c0.81-0.09,1.67-0.35,2.58-0.81
		C248.66,415.22,248.11,427.5,247.66,429.72z M275.54,399.29c-0.81,2.5-2.56,4.71-4.39,5.77c-0.68,0.39-1.37,0.63-2.03,0.66
		c-1.6,0.07-10-2.21-13.38-3.87c0.51-1.12,0.91-2.26,1.18-3.4c4.61-2.03,14.65-5.11,16.24-5.18
		C275.59,393.15,276.66,395.85,275.54,399.29z M271.2,375.06c0.42-0.38,0.85-0.69,1.27-0.93c2.13-1.23,4.09-0.73,4.69,1.41
		c0.71,2.56-0.81,6.5-3.39,8.8c-1.45,1.29-9.18,6.35-14.28,9.3c-0.81,0.47-1.55,0.88-2.2,1.22c-0.05-1.08-0.26-2.01-0.61-2.79
		C260.67,386.81,269.55,376.53,271.2,375.06z M258.9,368.75c0.94-2.1,2.44-3.8,3.98-4.69c0.95-0.55,1.92-0.78,2.76-0.6
		c2.2,0.49,2.75,3.64,1.23,7.05c-0.97,2.16-8.02,13.98-11.8,19.57c-0.67-0.45-1.47-0.69-2.37-0.7
		C254.18,383.22,257.95,370.9,258.9,368.75z M253.64,405.42c3.16,2,9.47,8.03,10.22,9.43c1.15,2.12,0.12,6.04-2.3,8.75
		c-0.66,0.74-1.36,1.32-2.05,1.71c-1.82,1.05-3.57,0.87-4.4-0.67c-0.76-1.4-3.25-11.71-3.81-16.61
		C252.14,407.27,252.93,406.39,253.64,405.42z M246.4,368.72c0.15-0.1,0.3-0.19,0.44-0.28c2.48-1.43,4.6-0.47,4.83,2.28
		c0.16,1.83-0.87,13.27-1.84,19.33c-0.31,0.14-0.62,0.3-0.94,0.48c-0.74,0.42-1.45,0.95-2.13,1.55c-1.85-4.17-4.58-12.97-4.73-14.78
		C241.78,374.37,243.73,370.53,246.4,368.72z M228.42,388.84c0.94-1.64,2.19-2.91,3.43-3.63c1.24-0.71,2.47-0.89,3.42-0.35
		c1.19,0.66,6.43,6.66,8.77,10.27c-0.84,1.18-1.57,2.46-2.13,3.78c-4.33-0.14-12.26-1.55-13.45-2.22
		C226.56,395.62,226.54,392.1,228.42,388.84z M224.92,406.52c0.14-0.08,0.28-0.15,0.42-0.22c1.68-0.8,10.89-3.01,15.4-3.53
		c-0.13,0.76-0.2,1.5-0.2,2.23c0,0.44,0.03,0.86,0.08,1.26c-4.43,3.68-13.28,10.01-15.7,11.41c-0.15,0.09-0.27,0.15-0.37,0.2
		c-2.67,1.28-4.65-0.27-4.44-3.46C220.32,411.38,222.43,407.96,224.92,406.52z"/>
</g>
<g id="tire_rim_front">
	
		<linearGradient id="SVGID_00000075147189081521309200000009596615375742160042_" gradientUnits="userSpaceOnUse" x1="212.681" y1="419.8379" x2="281.6555" y2="379.4045" gradientTransform="matrix(-1 0 0 -1 494.47 799.1656)">
		<stop  offset="0" style="stop-color:#1C88EB"/>
		<stop  offset="0.2319" style="stop-color:#3D9BEF"/>
		<stop  offset="0.74" style="stop-color:#92CCF9"/>
		<stop  offset="1" style="stop-color:#BFE6FF"/>
	</linearGradient>
	<path style="fill:url(#SVGID_00000075147189081521309200000009596615375742160042_);" d="M247.35,437.45
		c18.2-10.51,32.9-35.98,32.84-56.89c-0.06-20.91-14.86-29.34-33.06-18.84c-18.2,10.51-32.91,35.98-32.85,56.89
		C214.35,439.52,229.15,447.96,247.35,437.45z M232.14,430.92c-0.84,1.17-1.82,2.06-2.78,2.62c-1.52,0.88-3.02,0.92-3.97-0.07
		c-1.55-1.62-1.03-5.4,1.15-8.43c1.4-1.94,10.49-11.76,15.02-16.04c0.45,0.69,1.04,1.22,1.73,1.54
		C240.46,416.48,233.55,428.95,232.14,430.92z M247.66,429.72c-0.57,2.83-2.53,5.61-4.67,6.84c-0.41,0.24-0.83,0.42-1.24,0.53
		c-2.59,0.71-4.14-1.45-3.46-4.82c0.44-2.2,5-15.44,7.5-21.38c0.81-0.09,1.67-0.35,2.58-0.81
		C248.66,415.22,248.11,427.5,247.66,429.72z M275.54,399.29c-0.81,2.5-2.56,4.71-4.39,5.77c-0.68,0.39-1.37,0.63-2.03,0.66
		c-1.6,0.07-10-2.21-13.38-3.87c0.51-1.12,0.91-2.26,1.18-3.4c4.61-2.03,14.65-5.11,16.24-5.18
		C275.59,393.15,276.66,395.85,275.54,399.29z M271.2,375.06c0.42-0.38,0.85-0.69,1.27-0.93c2.13-1.23,4.09-0.73,4.69,1.41
		c0.71,2.56-0.81,6.5-3.39,8.8c-1.45,1.29-9.18,6.35-14.28,9.3c-0.81,0.47-1.55,0.88-2.2,1.22c-0.05-1.08-0.26-2.01-0.61-2.79
		C260.67,386.81,269.55,376.53,271.2,375.06z M258.9,368.75c0.94-2.1,2.44-3.8,3.98-4.69c0.95-0.55,1.92-0.78,2.76-0.6
		c2.2,0.49,2.75,3.64,1.23,7.05c-0.97,2.16-8.02,13.98-11.8,19.57c-0.67-0.45-1.47-0.69-2.37-0.7
		C254.18,383.22,257.95,370.9,258.9,368.75z M253.64,405.42c3.16,2,9.47,8.03,10.22,9.43c1.15,2.12,0.12,6.04-2.3,8.75
		c-0.66,0.74-1.36,1.32-2.05,1.71c-1.82,1.05-3.57,0.87-4.4-0.67c-0.76-1.4-3.25-11.71-3.81-16.61
		C252.14,407.27,252.93,406.39,253.64,405.42z M246.4,368.72c0.15-0.1,0.3-0.19,0.44-0.28c2.48-1.43,4.6-0.47,4.83,2.28
		c0.16,1.83-0.87,13.27-1.84,19.33c-0.31,0.14-0.62,0.3-0.94,0.48c-0.74,0.42-1.45,0.95-2.13,1.55c-1.85-4.17-4.58-12.97-4.73-14.78
		C241.78,374.37,243.73,370.53,246.4,368.72z M228.42,388.84c0.94-1.64,2.19-2.91,3.43-3.63c1.24-0.71,2.47-0.89,3.42-0.35
		c1.19,0.66,6.43,6.66,8.77,10.27c-0.84,1.18-1.57,2.46-2.13,3.78c-4.33-0.14-12.26-1.55-13.45-2.22
		C226.56,395.62,226.54,392.1,228.42,388.84z M224.92,406.52c0.14-0.08,0.28-0.15,0.42-0.22c1.68-0.8,10.89-3.01,15.4-3.53
		c-0.13,0.76-0.2,1.5-0.2,2.23c0,0.44,0.03,0.86,0.08,1.26c-4.43,3.68-13.28,10.01-15.7,11.41c-0.15,0.09-0.27,0.15-0.37,0.2
		c-2.67,1.28-4.65-0.27-4.44-3.46C220.32,411.38,222.43,407.96,224.92,406.52z"/>
</g>
<g id="body">
	<g>
		<g>
			
				<linearGradient id="SVGID_00000003823482681845779720000016053035100497957772_" gradientUnits="userSpaceOnUse" x1="130.9384" y1="344.1606" x2="131.2718" y2="313.4939" gradientTransform="matrix(1 0 0 -1 0 480)">
				<stop  offset="0" style="stop-color:#BFE6FF"/>
				<stop  offset="0.1211" style="stop-color:#B4E0FE"/>
				<stop  offset="0.3315" style="stop-color:#98CFFA"/>
				<stop  offset="0.606" style="stop-color:#6AB5F5"/>
				<stop  offset="0.931" style="stop-color:#2A90ED"/>
				<stop  offset="1" style="stop-color:#1C88EB"/>
			</linearGradient>
			<path style="fill:url(#SVGID_00000003823482681845779720000016053035100497957772_);" d="M128.1,134.58
				c-3.44,0.63-11.99,8.23-9.17,18.58s10.46,14.61,12.67,14.96c2.2,0.35,12.26-3.88,12.26-13.14
				C143.85,145.72,132.46,133.79,128.1,134.58z"/>
			<g>
				
					<linearGradient id="SVGID_00000048502723242642860500000010317670957444773267_" gradientUnits="userSpaceOnUse" x1="398.2128" y1="166.1589" x2="168.8961" y2="360.9779" gradientTransform="matrix(1 0 0 -1 0 480)">
					<stop  offset="0" style="stop-color:#B5DBFF"/>
					<stop  offset="0.5361" style="stop-color:#DBEDFF"/>
					<stop  offset="1" style="stop-color:#FFFFFF"/>
				</linearGradient>
				<path style="fill:url(#SVGID_00000048502723242642860500000010317670957444773267_);" d="M605.65,164.83
					c-4.11-8.93-12.11-10.91-9.8-31.28l0.01-0.05c1.56-11.74,1.47-18.12-1.06-25.63c-1.06-3.16-2.2-5.32-3.97-7.9
					c0,0-8.34-12.64-19.85-22.8c-21.09-18.62-27.31-22.3-79.64-53.23C451.96,0.66,424.98-0.6,403.55,0.15
					c-28.74,1.01-51.17,3.43-73.51,13.17c-45.04,19.63-62.96,28.69-75.95,36.2c-13,7.5-34.63,23.64-62.39,50.73
					c-22.73,22.19-50.15,51.93-65.73,67.17c-15.58,15.25-93.5,70.57-102.21,87.56c0,0.01-0.01,0.01-0.01,0.02
					c-0.7,1.36-1.33,2.75-1.92,4.16l-10.06,23.95C11.18,283.9-0.02,298.63,0,305.96s0.05,24.58,0.06,28.92
					c0.01,4.35,2.59,16.71,6.44,23.59c4.76,8.52,34.42,54.33,151.29,81.84c3.31,0.78,29.02,3.69,34.56,0.49
					c2.31-1.33,4.8-2.87,7.44-4.39c0.77-0.45,2.74-1.58,5.69-3.29c-0.74-3.06-1.15-6.46-1.16-10.21
					c-0.07-25.6,17.93-56.78,40.2-69.64s40.39-2.54,40.47,23.06c0.02,6.51,4.52,8.14,4.76,8.23l88.45-51.17l109.72-63.24
					c0-0.26-0.01-5.26-0.03-10.96c-0.07-25.6,17.92-56.77,40.2-69.63c22.28-12.86,40.39-2.53,40.46,23.06
					c0.01,3.74-0.37,7.6-1.09,11.5c2.12-1.22,4.08-2.35,5.87-3.38c15.11-8.72,19.18-11.48,24.13-21.01
					C603.12,188.86,607.87,169.65,605.65,164.83z"/>
				
					<linearGradient id="SVGID_00000064338782114637917640000009512737851483472034_" gradientUnits="userSpaceOnUse" x1="0" y1="108.8055" x2="211.2" y2="108.8055" gradientTransform="matrix(1 0 0 -1 0 480)">
					<stop  offset="0" style="stop-color:#FFFFFF"/>
					<stop  offset="0.2304" style="stop-color:#F3FAFF"/>
					<stop  offset="0.6399" style="stop-color:#D5EFFF"/>
					<stop  offset="1" style="stop-color:#B5E2FF"/>
				</linearGradient>
				<path style="fill:url(#SVGID_00000064338782114637917640000009512737851483472034_);" d="M65.6,370.42
					c-44.62-23.43-61.12-48.26-64.15-70.3C0.56,302.28,0,304.31,0,305.96c0.02,7.33,0.05,24.58,0.06,28.92
					c0.01,4.35,2.59,16.71,6.44,23.59c4.76,8.52,34.42,54.33,151.29,81.84c3.31,0.78,29.02,3.69,34.56,0.49
					c2.31-1.33,4.8-2.87,7.44-4.39c0.77-0.45,2.74-1.58,5.69-3.29c-0.74-3.06-1.15-6.46-1.16-10.21
					c-0.03-9.65,2.51-20.08,6.88-30.04C177.34,400.7,126.46,402.38,65.6,370.42z"/>
				
					<linearGradient id="SVGID_00000000194381593110019840000011935057558813127065_" gradientUnits="userSpaceOnUse" x1="421.0943" y1="254.8747" x2="445.9652" y2="209.1301" gradientTransform="matrix(1 0 0 -1 0 480)">
					<stop  offset="0" style="stop-color:#B5E2FF"/>
					<stop  offset="0.3601" style="stop-color:#D5EFFF"/>
					<stop  offset="0.7696" style="stop-color:#F3FAFF"/>
					<stop  offset="1" style="stop-color:#FFFFFF"/>
				</linearGradient>
				<path style="fill:url(#SVGID_00000000194381593110019840000011935057558813127065_);" d="M576.38,185.33
					c7.03-4.36,19.73-12.24,21.26-33.28l0,0c-1.8-4.01-2.82-9.43-1.79-18.5l0.01-0.05c0.37-2.82,0.65-5.33,0.82-7.62
					c-30.84,17.63-271.24,155.15-299.47,172.92c-30.17,18.99-38.8,49.3-38.8,49.3c15.46-2.42,26.53,8.26,26.59,28.25
					c0.02,6.51,4.52,8.14,4.76,8.23l22.8-13.19c4.12-9.77,14.67-29.57,36.62-43.39c13.51-8.5,75.58-44.42,140.04-81.49
					c4.52-22.46,20.19-46.14,38.88-56.93c15.05-8.69,28.2-6.78,35.16,3.26c4.2-2.41,6.64-3.77,8.29-4.69
					C573.61,186.99,574.56,186.46,576.38,185.33z"/>
				<g>
					
						<linearGradient id="SVGID_00000021807938142366582760000002114374891546666134_" gradientUnits="userSpaceOnUse" x1="45.78" y1="223.27" x2="281.82" y2="223.27" gradientTransform="matrix(1 0 0 -1 0 480)">
						<stop  offset="0" style="stop-color:#B5E2FF"/>
						<stop  offset="0.3601" style="stop-color:#D5EFFF"/>
						<stop  offset="0.7696" style="stop-color:#F3FAFF"/>
						<stop  offset="1" style="stop-color:#FFFFFF"/>
					</linearGradient>
					<path style="fill:url(#SVGID_00000021807938142366582760000002114374891546666134_);" d="M280.48,264.35
						c-105.79-20.04-146.36-77.68-153.57-89.28c-0.66-1.06-0.57-2.39,0.16-3.36l0,0c-70.1,82.86-80.29,125.8-81.29,132.33
						c7.93,7.36,18.17,14.34,30.68,20.91c12.43,6.53,27.25,12.75,43.81,16.8c9.95-5.57,74.78-41.89,161.55-77.46
						C281.39,264.41,280.94,264.43,280.48,264.35z"/>
					
						<linearGradient id="SVGID_00000029018212606032410430000015764824001946292883_" gradientUnits="userSpaceOnUse" x1="282.5196" y1="215.9919" x2="282.5152" y2="215.9948" gradientTransform="matrix(1 0 0 -1 0 480)">
						<stop  offset="0" style="stop-color:#A2A2A1"/>
						<stop  offset="0.0202" style="stop-color:#A4A4A3"/>
						<stop  offset="0.4686" style="stop-color:#D5D5D5"/>
						<stop  offset="0.8092" style="stop-color:#F4F4F3"/>
						<stop  offset="1" style="stop-color:#FFFFFF"/>
					</linearGradient>
					<polygon style="fill:url(#SVGID_00000029018212606032410430000015764824001946292883_);" points="282.51,264.01 282.52,264 
						282.52,264 					"/>
				</g>
			</g>
			<g>
				<g>
					
						<linearGradient id="SVGID_00000055706745824670304620000006553317524962221224_" gradientUnits="userSpaceOnUse" x1="124.9043" y1="119.0814" x2="33.2377" y2="170.7481" gradientTransform="matrix(1 0 0 -1 0 480)">
						<stop  offset="0" style="stop-color:#044887"/>
						<stop  offset="0.2181" style="stop-color:#095092"/>
						<stop  offset="0.5969" style="stop-color:#1565AE"/>
						<stop  offset="1" style="stop-color:#2580D3"/>
					</linearGradient>
					<path style="fill:url(#SVGID_00000055706745824670304620000006553317524962221224_);" d="M76.23,325.39
						c-14.33-7.52-25-15.23-32.78-22.9l-15.72,9.42c9.05,12.74,24.19,26.02,48.5,38.79c7.59,3.99,14.99,7.32,22.17,10.07l27.32,8.1
						c3.71,0.78,7.34,1.4,10.88,1.9l-12.31-27.53C109.43,339.99,93.33,334.37,76.23,325.39z"/>
					<path class="st19" d="M194.41,344.1c-20.18,3.07-44.78,3.93-70.99-1.59c-3.25-0.68-6.23,2.21-5.51,5.45
						c0.01,0.03,0.01,0.05,0.02,0.08c1.54,6.48,5.28,15.05,14.26,20.58c17.34,10.67,57.12,1.08,67.26-5.59
						c6.83-4.49,8.37-11.4,3.18-16.42c-0.02-0.01-0.03-0.03-0.05-0.04C200.41,344.51,197.37,343.65,194.41,344.1z"/>
					<path class="st19" d="M25.79,251.82c-1.73,2.01-9.96,15.54-11.28,24.78c-1.93,13.54,5.68,25.88,14.54,37.11
						c6.88,8.72,18.54-3.36,16.62-8.75C24.91,285.98,22.1,267.19,25.79,251.82z"/>
				</g>
				<g>
					
						<linearGradient id="SVGID_00000087388795151247751460000017009908074788345489_" gradientUnits="userSpaceOnUse" x1="82.0008" y1="101.8249" x2="66.6303" y2="75.0936" gradientTransform="matrix(1 0 0 -1 0 480)">
						<stop  offset="0" style="stop-color:#044887"/>
						<stop  offset="0.2181" style="stop-color:#095092"/>
						<stop  offset="0.5969" style="stop-color:#1565AE"/>
						<stop  offset="1" style="stop-color:#2580D3"/>
					</linearGradient>
					<path style="fill:url(#SVGID_00000087388795151247751460000017009908074788345489_);" d="M132.78,433.69
						c-4.88-23.8-21.1-43.63-43.36-53.35c-17.06-7.45-31.29-16.03-41.85-23.27c-12.36-8.48-29.09-6.41-38.94,4.88l0,0l0,0
						c8.37,12.55,37.83,46.88,123.5,71.67C132.35,433.63,132.56,433.66,132.78,433.69L132.78,433.69z"/>
					
						<linearGradient id="SVGID_00000074400245416746857410000000934338526676081077_" gradientUnits="userSpaceOnUse" x1="8.63" y1="82.89" x2="132.78" y2="82.89" gradientTransform="matrix(1 0 0 -1 0 480)">
						<stop  offset="0" style="stop-color:#1C88EB"/>
						<stop  offset="0.069" style="stop-color:#2A90ED"/>
						<stop  offset="0.394" style="stop-color:#6AB5F5"/>
						<stop  offset="0.6685" style="stop-color:#98CFFA"/>
						<stop  offset="0.8789" style="stop-color:#B4E0FE"/>
						<stop  offset="1" style="stop-color:#BFE6FF"/>
					</linearGradient>
					<path style="fill:url(#SVGID_00000074400245416746857410000000934338526676081077_);" d="M9.96,360.53
						c-0.45,0.46-0.9,0.92-1.33,1.41l0,0l0,0c8.37,12.55,37.83,46.88,123.5,71.67c0.22,0.02,0.43,0.05,0.65,0.08l0,0
						c-0.24-1.16-0.51-2.31-0.8-3.45C50.47,406.62,19.9,374.36,9.96,360.53z"/>
					<path class="st19" d="M90.67,366.55c-18.64-8.06-35.76-18.09-52.21-29.94c-0.91-0.65-2.17-0.01-2.17,1.1l-0.06,19.59
						c0,0.44,0.21,0.86,0.57,1.12c16.62,12.12,33.9,22.39,52.72,30.64c0.9,0.4,1.92-0.27,1.92-1.26l0.06-20
						C91.5,367.26,91.18,366.77,90.67,366.55z"/>
				</g>
				<path class="st22" d="M24.74,268.59c2.4,21.38,19.64,40.63,51.26,57.24c27.42,14.4,54.97,21.66,82.13,21.66
					c5.26,0,10.5-0.27,15.73-0.82c25.68-2.68,43.69-11.4,50.47-14.68c0.73-0.35,1.34-0.65,1.83-0.88
					c19.91-9.19,37.77-20.02,49.25-27.49c8.56-5.57,12.9-15.62,11.06-25.61c-0.84-4.55-2.05-9.08-3.61-13.48
					c-6.04-17.01-9.8-21.11-9.96-21.28l-0.73,0.68c0.04,0.04,3.8,4.2,9.74,20.93c1.54,4.35,2.75,8.83,3.57,13.33
					c1.76,9.59-2.41,19.24-10.63,24.59c-11.45,7.45-29.27,18.26-49.12,27.42c-0.5,0.23-1.11,0.53-1.85,0.88
					c-22.87,11.07-45.07,15.35-65.73,15.35c-32.06,0-60.39-10.3-81.69-21.49c-31.3-16.44-48.37-35.43-50.73-56.46
					c-0.74-6.62,0.07-12.93,1.76-18.72c-0.56,0.66-1.08,1.29-1.55,1.9C24.63,256.96,24.07,262.65,24.74,268.59z"/>
			</g>
			<g>
				<g>
					<path class="st22" d="M576.91,186.18c7-4.34,19.51-12.11,21.58-32.43c-0.3-0.54-0.58-1.1-0.85-1.7
						c-1.53,21.04-14.24,28.92-21.26,33.28c-1.82,1.13-2.77,1.66-4.84,2.82c-1.65,0.92-4.09,2.28-8.29,4.69
						c0.19,0.27,0.38,0.55,0.56,0.83c4.16-2.38,6.58-3.73,8.22-4.65C574.11,187.85,575.07,187.32,576.91,186.18z"/>
					<path class="st22" d="M534.8,119.48c-7.01-15.58-18.66-23.24-36.65-24.08c-20.79-0.97-48.32,13.02-74.98,28.29
						c-21.07,12.07-59.31,40.02-73.32,58.98c-16.67,22.56-55.56,75.71-56.5,81.95c-0.4,2.7,0.47,6.1,1.8,11.26
						c2.13,8.27,5.35,20.76,6.85,42.47c1.38,19.83,0.84,36-0.07,47.31l-16.97,9.8c0.01,0.29,0.02,0.58,0.02,0.88
						c0,0.09,0.01,0.17,0.01,0.26l16.83-9.72c-0.4,4.77-0.87,8.61-1.26,11.42l1.1-0.63c0.39-2.89,0.83-6.71,1.22-11.4l136.26-78.67
						c-0.59,4.26-1.35,8.3-2.28,11.98l1.19-0.69c0.89-3.69,1.61-7.7,2.17-11.92l47.66-27.51c0-0.09,0-0.18,0-0.27
						c0-0.3,0.01-0.6,0.02-0.9l-47.51,27.43c3.35-26.69,0.82-60.82-1.83-70.94c-0.69-2.62-1.32-4.67-1.93-6.65
						c-2.28-7.39-4.08-13.23-6.65-41.71c-2.39-26.47-7.1-38.66-8.04-40.87c0.58-0.34,1.16-0.68,1.73-1
						c26.52-15.19,53.89-29.12,74.43-28.16c17.57,0.82,28.94,8.29,35.78,23.49c2.58,5.74,4.01,22.32-3.6,68.48
						c0.37-0.19,0.74-0.36,1.1-0.54C537.36,151.4,538.54,127.8,534.8,119.48z M428.99,166.53c2.58,28.59,4.39,34.47,6.69,41.92
						c0.61,1.97,1.24,4.01,1.92,6.61c2.67,10.16,5.21,44.68,1.73,71.3L303,365.07c0.88-11.32,1.37-27.29,0.02-46.78
						c-1.52-21.8-4.75-34.35-6.88-42.65c-1.3-5.04-2.15-8.37-1.78-10.86c0.63-4.18,21.68-34.64,56.31-81.5
						c13.38-18.1,49.02-44.47,70.42-57.19C422.08,128.47,426.65,140.56,428.99,166.53z"/>
				</g>
				<g>
					<g>
						
							<linearGradient id="SVGID_00000098934889994111588210000004915197777394467712_" gradientUnits="userSpaceOnUse" x1="198.7198" y1="91.248" x2="289.9379" y2="91.248" gradientTransform="matrix(1 0 0 -1 0 480)">
							<stop  offset="0" style="stop-color:#B5E2FF"/>
							<stop  offset="0.3601" style="stop-color:#D5EFFF"/>
							<stop  offset="0.7696" style="stop-color:#F3FAFF"/>
							<stop  offset="1" style="stop-color:#FFFFFF"/>
						</linearGradient>
						<path style="fill:url(#SVGID_00000098934889994111588210000004915197777394467712_);" d="M289.85,373.37
							c-1.26-28.89-20.55-40.58-45.71-26.05c-25.16,14.53-45.5,49.75-45.42,78.66c0.01,3.79,0.37,7.28,1.05,10.45
							c0.01,0,0.01-0.01,0.02-0.01c0.77-0.45,2.74-1.58,5.69-3.29c-0.74-3.06-1.15-6.46-1.16-10.21
							c-0.07-25.6,17.93-56.78,40.2-69.64s40.39-2.54,40.47,23.06c0.02,6.07,3.92,7.9,4.65,8.19
							C289.94,380.93,290.02,377.21,289.85,373.37z"/>
						
							<linearGradient id="SVGID_00000048489950939803110460000006614901053686969001_" gradientUnits="userSpaceOnUse" x1="507.6716" y1="264.8874" x2="552.1716" y2="227.3874" gradientTransform="matrix(1 0 0 -1 0 480)">
							<stop  offset="0" style="stop-color:#B5E2FF"/>
							<stop  offset="0.3601" style="stop-color:#D5EFFF"/>
							<stop  offset="0.7696" style="stop-color:#F3FAFF"/>
							<stop  offset="1" style="stop-color:#FFFFFF"/>
						</linearGradient>
						<path style="fill:url(#SVGID_00000048489950939803110460000006614901053686969001_);" d="M527.38,183.79
							c-24.89,14.37-44.34,46-44.92,77.8c-0.08,4.21,0.15,7.98,0.64,11.35l4.82-2.78c0-0.26-0.01-5.26-0.03-10.96
							c-0.07-25.6,17.92-56.77,40.2-69.63c22.28-12.86,40.39-2.53,40.46,23.06c0.01,3.74-0.37,7.6-1.09,11.5
							c1.42-0.82,2.75-1.59,4.02-2.32c0.73-4.16,1.13-8.28,1.12-12.27C572.52,180.95,552.28,169.41,527.38,183.79z"/>
					</g>
					<g>
						<g>
							<path class="st19" d="M594.82,107.85c2.58,7.66,2.14,15.94,1.05,25.56c-12.57,4.29-13.86,3.41-18.74-0.08
								c-7.78-5.56-4.03-12.94-0.72-14.85C579.3,116.81,587.95,111.81,594.82,107.85z"/>
						</g>
						<g>
							
								<linearGradient id="SVGID_00000172421091648802560230000001687424112919698846_" gradientUnits="userSpaceOnUse" x1="349.1485" y1="298.5101" x2="380.4819" y2="248.5101" gradientTransform="matrix(1 0 0 -1 0 480)">
								<stop  offset="0" style="stop-color:#2580D3"/>
								<stop  offset="0.4031" style="stop-color:#1565AE"/>
								<stop  offset="0.7819" style="stop-color:#095092"/>
								<stop  offset="1" style="stop-color:#044887"/>
							</linearGradient>
							<path style="fill:url(#SVGID_00000172421091648802560230000001687424112919698846_);" d="M418.48,142.21
								c-0.62-4.49-4.64-5.02-8.35-2.87c-14.85,10.17-36.7,26.22-48.87,39.17c-8.87,9.43-26.93,36.39-41.88,57.87
								c-5.11,7.35-8.55,12.84-12.82,19.78c-4.36,7.08,3.76,15.24,10.86,10.9l104.67-63.32
								C422.09,203.74,421.31,162.66,418.48,142.21z"/>
							
								<linearGradient id="SVGID_00000034783894220216914150000003488569295598833052_" gradientUnits="userSpaceOnUse" x1="306.7861" y1="245.9023" x2="161.4347" y2="342.1349" gradientTransform="matrix(1 0 0 -1 0 480)">
								<stop  offset="0" style="stop-color:#044887"/>
								<stop  offset="0.2181" style="stop-color:#095092"/>
								<stop  offset="0.5969" style="stop-color:#1565AE"/>
								<stop  offset="1" style="stop-color:#2580D3"/>
							</linearGradient>
							<path style="fill:url(#SVGID_00000034783894220216914150000003488569295598833052_);" d="M337.34,178.91
								c-87.18-17.58-125.79-65.25-134.5-77.6c-1.07-1.51-3.23-1.7-4.54-0.39l-70.94,70.46c-0.99,0.98-1.17,2.5-0.44,3.68
								c7.2,11.6,47.77,69.25,153.57,89.28c1.15,0.22,2.33-0.26,3-1.22l55.71-79.58C340.43,181.78,339.44,179.34,337.34,178.91z"/>
							
								<linearGradient id="SVGID_00000142170805554319265930000010403852924025051028_" gradientUnits="userSpaceOnUse" x1="518.9325" y1="371.487" x2="518.9325" y2="423.3414" gradientTransform="matrix(1 0 0 -1 0 480)">
								<stop  offset="0" style="stop-color:#044887"/>
								<stop  offset="0.2181" style="stop-color:#095092"/>
								<stop  offset="0.5969" style="stop-color:#1565AE"/>
								<stop  offset="1" style="stop-color:#2580D3"/>
							</linearGradient>
							<path style="fill:url(#SVGID_00000142170805554319265930000010403852924025051028_);" d="M583.98,90.83
								c-1.44-3.54-10.75-15-23.07-23.83c-13.27-9.51-22.21-15.43-68.53-42.8C478,15.7,464.25,9.88,452.85,6.28
								c0.96,0.53,87.29,48.61,89.5,57c2.22,8.44,0.06,10.05-3.73,20.89c-2.09,5.99-3.82,15.2,4.51,22.64
								C552.86,115.51,591.82,110.12,583.98,90.83z"/>
							
								<linearGradient id="SVGID_00000139991263518287817110000017789278127105086375_" gradientUnits="userSpaceOnUse" x1="457.0323" y1="366.1172" x2="488.3656" y2="316.1172" gradientTransform="matrix(1 0 0 -1 0 480)">
								<stop  offset="0" style="stop-color:#2580D3"/>
								<stop  offset="0.4031" style="stop-color:#1565AE"/>
								<stop  offset="0.7819" style="stop-color:#095092"/>
								<stop  offset="1" style="stop-color:#044887"/>
							</linearGradient>
							<path style="fill:url(#SVGID_00000139991263518287817110000017789278127105086375_);" d="M499.7,103.31
								c-22.55-0.88-49.79,14.2-62.97,21.81l-0.11,0.06c-5.31,3.05-7.34,4.1-5.86,9.7c6.54,24.67,9.12,57.36,9.12,57.36l90.01-55.1
								c0.92-0.56,1.46-1.58,1.39-2.65C530.49,121.52,521.02,104.14,499.7,103.31z"/>
							<g>
								
									<linearGradient id="SVGID_00000072965764001492345710000012525196329853262734_" gradientUnits="userSpaceOnUse" x1="406.9399" y1="251.0322" x2="426.5701" y2="251.0322" gradientTransform="matrix(1 0 0 -1 0 480)">
									<stop  offset="0" style="stop-color:#A1DAFF"/>
									<stop  offset="0.0202" style="stop-color:#A3DBFF"/>
									<stop  offset="0.4686" style="stop-color:#D5EEFF"/>
									<stop  offset="0.8092" style="stop-color:#F3FAFF"/>
									<stop  offset="1" style="stop-color:#FFFFFF"/>
								</linearGradient>
								<path style="fill:url(#SVGID_00000072965764001492345710000012525196329853262734_);" d="M416.73,221.09
									c-5.41,3.12-9.81,9.2-9.79,13.55c0.01,4.35,4.43,5.33,9.84,2.21c5.41-3.13,9.81-9.2,9.79-13.55
									C426.56,218.95,422.14,217.96,416.73,221.09z"/>
								<g>
									
										<linearGradient id="SVGID_00000070108080106256069110000012943533219309675452_" gradientUnits="userSpaceOnUse" x1="407.71" y1="251.4823" x2="428.9201" y2="251.4823" gradientTransform="matrix(1 0 0 -1 0 480)">
										<stop  offset="0" style="stop-color:#C9E5FF"/>
										<stop  offset="0.5941" style="stop-color:#E0F1FF"/>
										<stop  offset="1" style="stop-color:#EBF7FF"/>
									</linearGradient>
									<path style="fill:url(#SVGID_00000070108080106256069110000012943533219309675452_);" d="M425.47,220.85
										c1.9-1.1,3.44-0.22,3.45,1.96c0.01,2.18-1.53,4.84-3.42,5.93c-0.18,0.1-0.35,0.19-0.52,0.26l-15.01,7.35
										c-1.25,0.72-2.26,0.14-2.26-1.29s1-3.18,2.25-3.89l15-9.97C425.12,221.07,425.3,220.95,425.47,220.85z"/>
								</g>
							</g>
							<g>
								
									<linearGradient id="SVGID_00000047756114743794091670000016720984957250732431_" gradientUnits="userSpaceOnUse" x1="504.9499" y1="307.4822" x2="524.58" y2="307.4822" gradientTransform="matrix(1 0 0 -1 0 480)">
									<stop  offset="0" style="stop-color:#A1DAFF"/>
									<stop  offset="0.0202" style="stop-color:#A3DBFF"/>
									<stop  offset="0.4686" style="stop-color:#D5EEFF"/>
									<stop  offset="0.8092" style="stop-color:#F3FAFF"/>
									<stop  offset="1" style="stop-color:#FFFFFF"/>
								</linearGradient>
								<path style="fill:url(#SVGID_00000047756114743794091670000016720984957250732431_);" d="M514.74,164.64
									c-5.41,3.12-9.81,9.2-9.79,13.55c0.01,4.35,4.43,5.33,9.84,2.21c5.41-3.13,9.81-9.2,9.79-13.55
									C524.56,162.5,520.15,161.51,514.74,164.64z"/>
								<g>
									
										<linearGradient id="SVGID_00000003786285035645652720000017211401551278158757_" gradientUnits="userSpaceOnUse" x1="505.72" y1="307.9323" x2="526.9301" y2="307.9323" gradientTransform="matrix(1 0 0 -1 0 480)">
										<stop  offset="0" style="stop-color:#C9E5FF"/>
										<stop  offset="0.5941" style="stop-color:#E0F1FF"/>
										<stop  offset="1" style="stop-color:#EBF7FF"/>
									</linearGradient>
									<path style="fill:url(#SVGID_00000003786285035645652720000017211401551278158757_);" d="M523.48,164.4
										c1.9-1.1,3.44-0.22,3.45,1.96c0.01,2.18-1.53,4.84-3.42,5.93c-0.18,0.1-0.35,0.19-0.52,0.26l-15.01,7.35
										c-1.25,0.72-2.26,0.14-2.26-1.29s1-3.18,2.25-3.9l15-9.97C523.13,164.62,523.3,164.5,523.48,164.4z"/>
								</g>
							</g>
							
								<linearGradient id="SVGID_00000040560953359467616200000010636910149377078146_" gradientUnits="userSpaceOnUse" x1="328.8284" y1="205.8021" x2="314.495" y2="225.1354" gradientTransform="matrix(1 0 0 -1 0 480)">
								<stop  offset="0" style="stop-color:#1C88EB"/>
								<stop  offset="0.069" style="stop-color:#2A90ED"/>
								<stop  offset="0.394" style="stop-color:#6AB5F5"/>
								<stop  offset="0.6685" style="stop-color:#98CFFA"/>
								<stop  offset="0.8789" style="stop-color:#B4E0FE"/>
								<stop  offset="1" style="stop-color:#BFE6FF"/>
							</linearGradient>
							<path style="fill:url(#SVGID_00000040560953359467616200000010636910149377078146_);" d="M322.99,247.75
								c-5.45-0.12-10.46,4.28-13.88,9.54l0,0c0,0-8.82,8.22-10.82,9.99c-2,1.78-1.55,8.99,4.11,8.33c4.01-0.47,6.73-4.33,7.99-6.55
								c2.07,1.47,4.99,3.06,9.08,4.44c11.46,3.88,29.61-3.76,29.79-10.99C349.43,255.27,330.75,247.92,322.99,247.75z"/>
						</g>
					</g>
				</g>
			</g>
		</g>
		
			<linearGradient id="SVGID_00000026165421430592229880000010543232677972063157_" gradientUnits="userSpaceOnUse" x1="263.7517" y1="363.8894" x2="158.7517" y2="291.8894" gradientTransform="matrix(1 0 0 -1 0 480)">
			<stop  offset="0" style="stop-color:#044887"/>
			<stop  offset="0.2181" style="stop-color:#095092"/>
			<stop  offset="0.5969" style="stop-color:#1565AE"/>
			<stop  offset="1" style="stop-color:#2580D3"/>
		</linearGradient>
		<path style="fill:url(#SVGID_00000026165421430592229880000010543232677972063157_);" d="M283.85,162.46
			c-50.13-21.51-74.35-51.69-81.02-61.14c-1.07-1.51-3.23-1.7-4.54-0.39l-70.94,70.46c-0.99,0.98-1.17,2.5-0.44,3.68
			c0.74,1.2,1.85,2.89,3.34,4.98C148.27,173.99,226.99,149.45,283.85,162.46z"/>
	</g>
</g>
</svg>
